<svg xmlns="http://www.w3.org/2000/svg" viewBox="0 0 24 24" width="512" height="512">
  <g fill="#FFFFFF">
    <path d="M23.854,11.646l-4-4A.5.5,0,0,0,19,8V9.662A9,9,0,0,0,3,18a.5.5,0,0,0,.5.5.5.5,0,0,0,.5-.5A8,8,0,0,1,19,10.577V12a.5.5,0,0,0,.854.354l4-4A.5.5,0,0,0,23.854,11.646Z"/>
    <path d="M4.5,16A.5.5,0,0,1,4,15.5V14H3a1,1,0,0,1-1-1V11a1,1,0,0,1,1-1H4V8.5A.5.5,0,0,1,4.5,8a.5.5,0,0,1,.5.5V10a1,1,0,0,1-1,1H3v2H4a1,1,0,0,1,1,1v1.5A.5.5,0,0,1,4.5,16Z"/>
    <path d="M9.5,16A.5.5,0,0,1,9,15.5V14H8a1,1,0,0,1-1-1V11a1,1,0,0,1,1-1H9V8.5A.5.5,0,0,1,9.5,8a.5.5,0,0,1,.5.5V10a1,1,0,0,1-1,1H8v2H9a1,1,0,0,1,1,1v1.5A.5.5,0,0,1,9.5,16Z"/>
    <path d="M14.5,16A.5.5,0,0,1,14,15.5V14H13a1,1,0,0,1-1-1V11a1,1,0,0,1,1-1h1V8.5A.5.5,0,0,1,14.5,8a.5.5,0,0,1,.5.5V10a1,1,0,0,1-1,1H13v2h1a1,1,0,0,1,1,1v1.5A.5.5,0,0,1,14.5,16Z"/>
  </g>
</svg>