<svg xmlns="http://www.w3.org/2000/svg" viewBox="0 0 24 24" width="512" height="512">
  <g fill="#FFFFFF">
    <path d="M22.854,6.646l-5.5-5.5A5,5,0,0,0,13.5,0H5A5.006,5.006,0,0,0,0,5V19a5.006,5.006,0,0,0,5,5H19a5.006,5.006,0,0,0,5-5V10.5A5,5,0,0,0,22.854,6.646ZM14,2V7H10V2ZM22,19a3,3,0,0,1-3,3H5a3,3,0,0,1-3-3V5A3,3,0,0,1,5,2H8V7.5A1.5,1.5,0,0,0,9.5,9h5A1.5,1.5,0,0,0,16,7.5V2h.5a3,3,0,0,1,2.123.879l5.5,5.5A3,3,0,0,1,24.022,10.5s0,.01,0,.016S22,10.5,22,10.5Z"/>
    <path d="M19,14H5a1,1,0,0,0-1,1v4a1,1,0,0,0,1,1H19a1,1,0,0,0,1-1V15A1,1,0,0,0,19,14Zm-1,4H6V16H18Z"/>
  </g>
</svg>