<svg xmlns="http://www.w3.org/2000/svg" viewBox="0 0 24 24" width="512" height="512">
  <g fill="#FFFFFF">
    <path d="M14.5,16.5a1.5,1.5,0,0,1-.442-2.929l.333-.1.109-3.576-10,7a1.5,1.5,0,0,1-1.73-2.452l13-9A1.5,1.5,0,0,1,17,6.4V7.667a1.494,1.494,0,0,1-1,1.407l-.5.167.154,5.075A1.5,1.5,0,0,1,14.5,16.5Z"/>
    <path d="M19,10a5.006,5.006,0,0,0-5-5h-.1a.9.9,0,0,0-.9.9,1,1,0,0,0,1,1,3,3,0,0,1,0,6,.969.969,0,0,0-1,1.1A.9.9,0,0,0,13.9,15H14a5.006,5.006,0,0,0,5-5Z"/>
    <path d="M15.736,1.159a.987.987,0,0,0-1.347.361.963.963,0,0,0,.361,1.318A8.937,8.937,0,0,1,20.1,16.055a.988.988,0,0,0,.361,1.347.987.987,0,0,0,1.347-.36A10.869,10.869,0,0,0,15.736,1.159Z"/>
  </g>
</svg>